<svg xmlns="http://www.w3.org/2000/svg" viewBox="0 0 272.66 50.11"><defs><style>.cls-1{fill:#d6251d;}.cls-2{fill:#3674ab;}.cls-3{fill:#dea820;}.cls-4{fill:#1b4f38;}.cls-5{fill:#e1b0bf;}.cls-6{fill:#dd7b29;}</style></defs><title>資產 6</title><g id="圖層_2" data-name="圖層 2"><g id="圖層_1-2" data-name="圖層 1"><path class="cls-1" d="M0,42.77a6.92,6.92,0,0,1,1.33-4.29A9.69,9.69,0,0,1,4.9,35.64a.88.88,0,0,1,.43-.14l.43-.15H24.84l.86-.29.29-.14.36-.29V33.12l-.21-.22a1.36,1.36,0,0,0-.44-.14l-.21-.14H15.05l-.65-.08-1.08-.28-1-.22-.65-.22A16.63,16.63,0,0,1,3.1,26,15.62,15.62,0,0,1,0,16.27,17,17,0,0,1,2.63,7a14.19,14.19,0,0,1,7.59-5.87l2-.72A6.6,6.6,0,0,1,14.47,0H35.21a4.38,4.38,0,0,1,2.52.86,8,8,0,0,1,1.94,1.91,8.49,8.49,0,0,1,1.12,2.41,8.94,8.94,0,0,1,.39,2.38,7.36,7.36,0,0,1-1.11,4,7.32,7.32,0,0,1-3.13,2.7l-.8.36-.5.14H16.34a1.39,1.39,0,0,0-1.51,1.51,1,1,0,0,0,.43.94l.44.29H26.14l.5.14,1,.22,1.15.21.94.22a12.49,12.49,0,0,1,3.78,1.55,17.09,17.09,0,0,1,3.24,2.52,14.29,14.29,0,0,1,2.34,3.06,12.08,12.08,0,0,1,1.65,3.67L41,30.17l.14.86v5.69a8.5,8.5,0,0,1-.36,2.48,13.63,13.63,0,0,1-1,2.42,16.85,16.85,0,0,1-3.5,4.24,19.43,19.43,0,0,1-4.64,3.06,11.33,11.33,0,0,1-4.9,1.19H6.19a4.69,4.69,0,0,1-2.48-.68,7.55,7.55,0,0,1-2-1.77,7.44,7.44,0,0,1-1.3-2.44A8.22,8.22,0,0,1,0,42.77Z"/><path class="cls-2" d="M68.33,0a23.44,23.44,0,0,1,5.58.65,21.61,21.61,0,0,1,5,1.94A18.63,18.63,0,0,1,83.34,5.9a17.06,17.06,0,0,1,3.2,4.54q.36.64.72,1.44a8.59,8.59,0,0,1,.51,1.37,9.24,9.24,0,0,1,.5,3,7,7,0,0,1-2.16,5.26,7.29,7.29,0,0,1-5.26,2.09,7.11,7.11,0,0,1-3.41-.69,6.3,6.3,0,0,1-2-1.55,7.79,7.79,0,0,1-1.3-2.08l-1.22-2.09a4.92,4.92,0,0,0-1.7-1.62,5.45,5.45,0,0,0-2.91-.69,5.71,5.71,0,0,0-4.11,1.59,5.42,5.42,0,0,0-1.65,4.1v8.93a5.48,5.48,0,0,0,1.65,4.21,5.91,5.91,0,0,0,4.18,1.55,5.12,5.12,0,0,0,2.88-.72A7.57,7.57,0,0,0,73,33a8.41,8.41,0,0,0,1.16-2,8,8,0,0,1,1.26-2.12,6.2,6.2,0,0,1,2.05-1.62,7.22,7.22,0,0,1,3.34-.65,7.3,7.3,0,0,1,5.23,2.12,6.91,6.91,0,0,1,2.19,5.15,10.62,10.62,0,0,1-.5,3l-1.23,2.88a17.17,17.17,0,0,1-3.24,4.54,18,18,0,0,1-4.39,3.24,21.92,21.92,0,0,1-5.15,1.94,22.78,22.78,0,0,1-5.43.65,21.73,21.73,0,0,1-11.13-3,17.93,17.93,0,0,1-7.52-8.5l-1.37-3.38a9.11,9.11,0,0,1-.5-1.8,15.61,15.61,0,0,1-.07-1.8V18.5a12.9,12.9,0,0,1,.57-3.6l1.37-3.45a18.14,18.14,0,0,1,7.59-8.61A22.05,22.05,0,0,1,68.33,0Z"/><path class="cls-3" d="M115.41,0q13.32,0,18.87,11.88a11.89,11.89,0,0,1,1.19,2.84,16.81,16.81,0,0,1,.46,2.06,11.9,11.9,0,0,1,.08,1.51V31.82a8.18,8.18,0,0,1-.15,1.66,16.48,16.48,0,0,1-.43,1.66,19.77,19.77,0,0,1-1.15,3.09q-5.62,11.88-18.87,11.88a25.13,25.13,0,0,1-3.16-.21c-1.11-.15-2.09-.32-3-.51A23.28,23.28,0,0,1,103.75,47a18,18,0,0,1-7.42-9.22c-.28-.58-.48-1-.57-1.26s-.24-.76-.43-1.48a9.34,9.34,0,0,1-.51-3v-14L95,16.78l.36-1.59.5-1.58.5-1.3a19.36,19.36,0,0,1,7.56-9.21A21.31,21.31,0,0,1,115.41,0Zm0,14.83a6.41,6.41,0,0,0-4,1.37,4.44,4.44,0,0,0-1.8,3.74V30.17a4.44,4.44,0,0,0,1.8,3.74,6.41,6.41,0,0,0,4,1.37,6,6,0,0,0,4-1.48A4.75,4.75,0,0,0,121.17,30V20.16a4.74,4.74,0,0,0-1.8-3.85A6.08,6.08,0,0,0,115.41,14.83Z"/><path class="cls-4" d="M183.74,16.13a21.14,21.14,0,0,1-.14,2.45,22.54,22.54,0,0,1-.4,2.23,15.72,15.72,0,0,1-.65,2.12q-.39,1-.9,2.13L183,28.22a8.8,8.8,0,0,1,.72,3.39V44.14a4.43,4.43,0,0,1-.72,2.37,6.93,6.93,0,0,1-1.73,1.91,8.32,8.32,0,0,1-2.44,1.22,8,8,0,0,1-2.45.47,7.12,7.12,0,0,1-6.91-4.46l-.36-.72-.15-.58V33.55l-.29-.57a1.46,1.46,0,0,0-.64-.29H157.32V44.14l-.22.64-.29.87A6.86,6.86,0,0,1,154,49a7.92,7.92,0,0,1-4.11,1.11A8.15,8.15,0,0,1,145.73,49,7.05,7.05,0,0,1,143,45.65l-.29-.72-.14-.58V5.76a5.12,5.12,0,0,1,.65-2,9,9,0,0,1,1.44-1.8,5.87,5.87,0,0,1,2-1.36A4.38,4.38,0,0,1,148.75,0h20.59l1.12.14a7.83,7.83,0,0,1,1,.22l2.16.72A14.89,14.89,0,0,1,181.15,7,16.58,16.58,0,0,1,183.74,16.13Zm-26.35,1.29h10.66q.64-.06.72-.36l.14-.93a1,1,0,0,0-.4-1,2,2,0,0,0-1.11-.26h-10Z"/><path class="cls-5" d="M231.48,7.34a6.92,6.92,0,0,1-1.37,4.36,9.35,9.35,0,0,1-3.53,2.77l-.5.22-.36.07h-20.6V17.5h6.63a4.83,4.83,0,0,1,2.45.72,7.51,7.51,0,0,1,2.08,1.8,6.15,6.15,0,0,1,1.44,2.44,5.68,5.68,0,0,1,.58,2.6,6.57,6.57,0,0,1-.14,1.4,6.2,6.2,0,0,1-.36,1.08c-.15.31-.35.71-.62,1.19a10.1,10.1,0,0,1-.9,1.37A8.08,8.08,0,0,1,214.16,32a4.74,4.74,0,0,1-2.41.65h-6.63v2.73h20.6l.36.15.5.14a9,9,0,0,1,3.56,2.77,7,7,0,0,1,1.34,4.36,7.1,7.1,0,0,1-.4,2.34,11.69,11.69,0,0,1-.65,1.58,9,9,0,0,1-.61,1,5.55,5.55,0,0,1-2,1.8,5.07,5.07,0,0,1-2.44.65H196.27a6.08,6.08,0,0,1-1.84-.5,7.68,7.68,0,0,1-1.15-.65,8.83,8.83,0,0,1-1-.86,11.79,11.79,0,0,1-1.44-1.88,3.47,3.47,0,0,1-.58-1.87V5.76a5.28,5.28,0,0,1,.65-2,9.76,9.76,0,0,1,1.44-1.8,5.91,5.91,0,0,1,2-1.36A4.35,4.35,0,0,1,196.48,0h28.88a5.19,5.19,0,0,1,2.52.68,5.86,5.86,0,0,1,1.94,1.7A8.81,8.81,0,0,1,231,4.82,8.39,8.39,0,0,1,231.48,7.34Z"/><path class="cls-6" d="M257.83,7.49A7.06,7.06,0,0,1,260,2.2a7.46,7.46,0,0,1,10.44,0,6.94,6.94,0,0,1,2.2,5.22,7,7,0,0,1-2.12,5.36,7.67,7.67,0,0,1-5.44,2,6.61,6.61,0,0,1-2.74-.58A9.26,9.26,0,0,1,260,12.67a7.68,7.68,0,0,1-1.62-2.3A7.12,7.12,0,0,1,257.83,7.49Zm0,35.21a7.21,7.21,0,0,1,.61-2.92,7.37,7.37,0,0,1,1.62-2.38,6.15,6.15,0,0,1,2.3-1.4,6.79,6.79,0,0,1,2.88-.58,7.27,7.27,0,0,1,5.3,2.09,7.09,7.09,0,0,1,2.12,5.26A7,7,0,0,1,270.5,48a7.25,7.25,0,0,1-5.26,2.09A7.47,7.47,0,0,1,259.92,48,7.32,7.32,0,0,1,257.83,42.7Z"/></g></g></svg>