<svg xmlns="http://www.w3.org/2000/svg" viewBox="0 0 208.37 50.11"><defs><style>.cls-1{fill:#dd7b29;}.cls-2{fill:#e1b0bf;}.cls-3{fill:#234c8d;}.cls-4{fill:#dea820;}.cls-5{fill:#1b4f38;}</style></defs><title>資產 7</title><g id="圖層_2" data-name="圖層 2"><g id="圖層_1-2" data-name="圖層 1"><path class="cls-1" d="M5.76,14.76l-.58-.14-.72-.36a9,9,0,0,1-3.31-2.88A7,7,0,0,1,0,7.42,7.67,7.67,0,0,1,.43,5,15.9,15.9,0,0,1,1.76,2.56a6.24,6.24,0,0,1,2-1.84A4.71,4.71,0,0,1,6.19,0H35.28a4.59,4.59,0,0,1,2.45.76,6.64,6.64,0,0,1,1.94,1.76,7.14,7.14,0,0,1,.76,1.26A9.31,9.31,0,0,1,40.9,5a6.87,6.87,0,0,1,.5,2.45,7,7,0,0,1-1.33,4.35,8.41,8.41,0,0,1-3.57,2.7l-.5.22-.36.07H28.15V44.35l-.14.43-.22.44A8.87,8.87,0,0,1,25,48.85a7,7,0,0,1-4.14,1.26,7.67,7.67,0,0,1-4.5-1.37A6.81,6.81,0,0,1,13.61,45l-.29-.58-.07-.5V14.76Z"/><path class="cls-2" d="M55.15.07A8.53,8.53,0,0,1,57.71.5a7.5,7.5,0,0,1,2.41,1.3,7.35,7.35,0,0,1,1.76,2,4.65,4.65,0,0,1,.69,2.44V44a4.68,4.68,0,0,1-.69,2.45,7.35,7.35,0,0,1-1.76,2,7.91,7.91,0,0,1-1.26.75,8,8,0,0,1-1.19.47,8.86,8.86,0,0,1-2.52.43,7,7,0,0,1-4.35-1.33,7.92,7.92,0,0,1-2.63-3.56,1.09,1.09,0,0,1-.15-.44L48,44.42V5.83a3.54,3.54,0,0,1,.43-1.44L49,3.31A6.38,6.38,0,0,1,51.7.83,7.79,7.79,0,0,1,55.15.07Z"/><path class="cls-3" d="M76.54,0a9.11,9.11,0,0,1,3.31.65,6.51,6.51,0,0,1,2.66,2.09L94.32,20.3,106.05,2.74a5.77,5.77,0,0,1,2.7-2.09A9.2,9.2,0,0,1,112,0a7,7,0,0,1,1.48.14,8.46,8.46,0,0,1,1.4.51,10.14,10.14,0,0,1,1.26.65,7.11,7.11,0,0,1,1,.72,5.18,5.18,0,0,1,1.69,2.12A6.72,6.72,0,0,1,119.45,7V43.13A6.66,6.66,0,0,1,118.8,46a6.39,6.39,0,0,1-1.62,2.19,8.11,8.11,0,0,1-2.34,1.37,7.59,7.59,0,0,1-2.81.54,7.26,7.26,0,0,1-4.21-1.26A8.24,8.24,0,0,1,105,45.43l-.37-.86-.14-.65V32.26l-4.53,6.62a4.62,4.62,0,0,1-2.56,1.87,11.24,11.24,0,0,1-3.06.43,11.39,11.39,0,0,1-3.17-.43,5.81,5.81,0,0,1-2.52-1.87l-4.54-6.62V43.78a4.29,4.29,0,0,1-.43,1.51l-.72,1.44a6.7,6.7,0,0,1-2.77,2.55,8.06,8.06,0,0,1-3.63.83A7.21,7.21,0,0,1,75.09,50q-.65-.15-1.29-.36a8.93,8.93,0,0,1-2.34-1.41,7.15,7.15,0,0,1-1.66-2.12,5.85,5.85,0,0,1-.68-2.74V6.77A5.77,5.77,0,0,1,69.8,4a7.26,7.26,0,0,1,1.62-2.06A6.08,6.08,0,0,1,73.83.47,8.64,8.64,0,0,1,76.54,0Z"/><path class="cls-4" d="M167.18,7.56a6.61,6.61,0,0,1-1.37,4.21,8.7,8.7,0,0,1-3.52,2.7l-.51.22-.36.07H146.16l-1.3.22-1.37.5-1.15.86a2.47,2.47,0,0,0-.65,1.08l4.32.22a12.59,12.59,0,0,1,4.07,1,6.56,6.56,0,0,1,2.77,2.23A6.81,6.81,0,0,1,154,25.2a7.07,7.07,0,0,1-1.16,4.25,7.06,7.06,0,0,1-3.06,2.23,13,13,0,0,1-3.31.79c-1,.1-2,.18-2.91.25l-1.88.18.51.58.79.72,1.58.79a5.51,5.51,0,0,0,1.8.36h15l.36.15.51.14a9,9,0,0,1,3.52,2.74,6.27,6.27,0,0,1,1.37,4.17,7.56,7.56,0,0,1-.39,2.49,13.2,13.2,0,0,1-.65,1.58,9,9,0,0,1-.61,1,6.21,6.21,0,0,1-1.95,1.84,4.91,4.91,0,0,1-2.52.68H144.5c-.38,0-.73,0-1,0s-.93-.14-1.84-.33L139,48.82A19.31,19.31,0,0,1,130.5,43a20.94,20.94,0,0,1-4.29-9.18,1.45,1.45,0,0,1-.14-.72l-.07-.58V18.07l.14-.93.29-1.44a25,25,0,0,1,2.23-5.84,23.85,23.85,0,0,1,4.14-5.11,18.86,18.86,0,0,1,5.29-3.45,15.19,15.19,0,0,1,6.2-1.3h16.77a4.66,4.66,0,0,1,2.52.76,6.55,6.55,0,0,1,1.95,1.76,7.11,7.11,0,0,1,.75,1.26A8,8,0,0,1,166.75,5,8.08,8.08,0,0,1,167.18,7.56Z"/><path class="cls-5" d="M193.53,7.49a7,7,0,0,1,2.2-5.29,7.46,7.46,0,0,1,10.44,0,7,7,0,0,1,2.2,5.22,7,7,0,0,1-2.13,5.36,7.64,7.64,0,0,1-5.43,2,6.54,6.54,0,0,1-2.74-.58,9.31,9.31,0,0,1-2.38-1.51,7.68,7.68,0,0,1-1.62-2.3A7.12,7.12,0,0,1,193.53,7.49Zm0,35.21a7.22,7.22,0,0,1,.62-2.92,7.07,7.07,0,0,1,1.62-2.38,6.15,6.15,0,0,1,2.3-1.4,6.76,6.76,0,0,1,2.88-.58,7.25,7.25,0,0,1,5.29,2.09,7.06,7.06,0,0,1,2.13,5.26A7,7,0,0,1,206.21,48,7.27,7.27,0,0,1,201,50.11,7.51,7.51,0,0,1,195.62,48,7.36,7.36,0,0,1,193.53,42.7Z"/></g></g></svg>