<svg xmlns="http://www.w3.org/2000/svg" viewBox="0 0 553.67 50.11"><defs><style>.cls-1{fill:#d6251d;}.cls-2{fill:#1b4f38;}.cls-3{fill:#e1b0bf;}.cls-4{fill:#234c8d;}.cls-5{fill:#a9a386;}.cls-6{fill:#dd7b29;}.cls-7{fill:#3674ab;}.cls-8{fill:#dea820;}</style></defs><title>資產 8</title><g id="圖層_2" data-name="圖層 2"><g id="圖層_1-2" data-name="圖層 1"><path class="cls-1" d="M7.34.07a7.81,7.81,0,0,1,4.07,1.15,6.63,6.63,0,0,1,2.77,3.32l.29.79.15.5V26.57a4.4,4.4,0,0,1-.72,2.37,6.93,6.93,0,0,1-1.73,1.91,8.62,8.62,0,0,1-2.38,1.23,7.69,7.69,0,0,1-2.45.46,6.8,6.8,0,0,1-2.26-.39,12.82,12.82,0,0,1-1.59-.65,9,9,0,0,1-1-.61,5.77,5.77,0,0,1-1.8-1.95A4,4,0,0,1,0,26.57V6.05A4.54,4.54,0,0,1,.68,3.6a6.94,6.94,0,0,1,1.7-1.84A8.32,8.32,0,0,1,4.82.54,8.39,8.39,0,0,1,7.34.07ZM0,42.62a6.7,6.7,0,0,1,2.12-5.18A7.44,7.44,0,0,1,7.34,35.5a7,7,0,0,1,5.3,2.08,7.45,7.45,0,0,1,2,5.33A6.94,6.94,0,0,1,14,45.79a7.14,7.14,0,0,1-1.65,2.34,7.8,7.8,0,0,1-2.23,1.48,7.22,7.22,0,0,1-2.78.5A6.87,6.87,0,0,1,2,47.92,7.65,7.65,0,0,1,0,42.62Z"/><path class="cls-1" d="M82.37,7.34a7.7,7.7,0,0,1-1.19,4.14,6.86,6.86,0,0,1-3.28,2.78l-.79.36-.5.14H61.34a10.53,10.53,0,0,0-2,.4,5.78,5.78,0,0,0-1.58.86,4.93,4.93,0,0,0-1.3,1.37A3.15,3.15,0,0,0,56,19.08V31.25a3.73,3.73,0,0,0,.71,1.83,5.33,5.33,0,0,0,1.34,1.26,4.87,4.87,0,0,0,1.76.72,5.24,5.24,0,0,0,1.73.29h15l.5.22.79.29a7.36,7.36,0,0,1,3.28,2.8,7.44,7.44,0,0,1,1.19,4,13.17,13.17,0,0,1-.51,2.44,10.85,10.85,0,0,1-1.29,2.6,6.23,6.23,0,0,1-1.87,1.69,4.79,4.79,0,0,1-2.45.68H59.69a11.39,11.39,0,0,1-3.17-.43l-3-1.08A14.68,14.68,0,0,1,48.64,46a24.59,24.59,0,0,1-4-4A21.8,21.8,0,0,1,42,37.15a15,15,0,0,1-1-5.54V18.72a11.45,11.45,0,0,1,.43-3.17l1.08-3a18.78,18.78,0,0,1,2.63-4.79A22.11,22.11,0,0,1,49,3.85,19.21,19.21,0,0,1,53.89,1a14.91,14.91,0,0,1,5.36-1h17a4.46,4.46,0,0,1,2.37.76,7.19,7.19,0,0,1,2,1.8A8.49,8.49,0,0,1,81.9,4.9,7.25,7.25,0,0,1,82.37,7.34Z"/><path class="cls-2" d="M109.51,0a22.64,22.64,0,0,1,6.19.79A20.19,20.19,0,0,1,121,3.17a18.77,18.77,0,0,1,7.56,9.14,8.63,8.63,0,0,1,.54,1.3c.12.38.31,1,.58,1.87a9.69,9.69,0,0,1,.39,2.81V31.82a12.66,12.66,0,0,1-.5,3.1l-1,2.88A19.09,19.09,0,0,1,121,47a22.64,22.64,0,0,1-23,0,18.72,18.72,0,0,1-7.56-9.14,15.58,15.58,0,0,1-1.08-2.92A11.08,11.08,0,0,1,88.92,32v-14l.14-1.29.36-1.59.51-1.58.5-1.3A19.36,19.36,0,0,1,98,3.1,21.27,21.27,0,0,1,109.51,0Zm0,14.83a6.28,6.28,0,0,0-4,1.41,4.46,4.46,0,0,0-1.8,3.7V30.17a4.44,4.44,0,0,0,1.8,3.74,6.41,6.41,0,0,0,4,1.37,6,6,0,0,0,4-1.48A4.78,4.78,0,0,0,115.27,30V20.16a4.78,4.78,0,0,0-1.73-3.89A6.09,6.09,0,0,0,109.51,14.83Z"/><path class="cls-3" d="M144.07,0a7,7,0,0,1,1.48.14,7.31,7.31,0,0,1,1.26.44A13.79,13.79,0,0,1,149.25,2,8.16,8.16,0,0,1,151,4.28a5.85,5.85,0,0,1,.65,2.7V31a5.69,5.69,0,0,0,.5,1.59l1.3,1.44a7.9,7.9,0,0,0,1.66,1,4.58,4.58,0,0,0,1.72.32h15.48l.51.22.79.29a6.68,6.68,0,0,1,3.24,2.8,7.33,7.33,0,0,1,1.22,4.11,6.73,6.73,0,0,1-.43,2.23,13.37,13.37,0,0,1-.68,1.69,9,9,0,0,1-.61,1,5.68,5.68,0,0,1-2,1.8,4.94,4.94,0,0,1-2.42.65h-17a15.41,15.41,0,0,1-6.12-1.22,21.84,21.84,0,0,1-5.11-3.39,23.42,23.42,0,0,1-4-4.89,21.88,21.88,0,0,1-2.41-5.55l-.21-.93-.22-1.23a1.72,1.72,0,0,1-.14-.79l-.08-.72V6.19a4.8,4.8,0,0,1,.76-2.52,6.84,6.84,0,0,1,1.73-1.94A9.54,9.54,0,0,1,141.48.5,7.6,7.6,0,0,1,144.07,0Z"/><path class="cls-4" d="M204.48,0a22.7,22.7,0,0,1,6.19.79A20.34,20.34,0,0,1,216,3.17a18.77,18.77,0,0,1,7.56,9.14,8.63,8.63,0,0,1,.54,1.3c.12.38.31,1,.57,1.87a9.36,9.36,0,0,1,.4,2.81V31.82a12.66,12.66,0,0,1-.5,3.1l-1,2.88A19.09,19.09,0,0,1,216,47a22.64,22.64,0,0,1-23,0,18.72,18.72,0,0,1-7.56-9.14,15.58,15.58,0,0,1-1.08-2.92,11.08,11.08,0,0,1-.43-2.84v-14l.14-1.29.36-1.59.5-1.58.51-1.3A19.36,19.36,0,0,1,193,3.1,21.27,21.27,0,0,1,204.48,0Zm0,14.83a6.28,6.28,0,0,0-4,1.41,4.46,4.46,0,0,0-1.8,3.7V30.17a4.44,4.44,0,0,0,1.8,3.74,6.41,6.41,0,0,0,4,1.37,6,6,0,0,0,4-1.48A4.76,4.76,0,0,0,210.24,30V20.16a4.81,4.81,0,0,0-1.73-3.89A6.11,6.11,0,0,0,204.48,14.83Z"/><path class="cls-5" d="M272.66,19.3a13.49,13.49,0,0,1-.72,3l-.29.72-.36.72-.28.65-.29.65.29.64.28.65,1,2.52a6.68,6.68,0,0,1,.51,2.59V44.14a4.49,4.49,0,0,1-.72,2.37,6.93,6.93,0,0,1-1.73,1.91,8.38,8.38,0,0,1-2.45,1.22,8,8,0,0,1-2.45.47,7.65,7.65,0,0,1-4.1-1.19,6.79,6.79,0,0,1-2.81-3.27l-.36-.87-.14-.64V33.34a1.64,1.64,0,0,1-.18-.22.77.77,0,0,0-.26-.22l-.5-.21H246.38V44.14l-.21.64-.29.87A6.88,6.88,0,0,1,243.07,49a7.91,7.91,0,0,1-4.1,1.11,6.82,6.82,0,0,1-2.27-.39,13.53,13.53,0,0,1-1.59-.65,10.1,10.1,0,0,1-1-.61,6.61,6.61,0,0,1-1.87-2,4.54,4.54,0,0,1-.65-2.37V6a6.29,6.29,0,0,1,.58-2.09l.65-1.08a8.73,8.73,0,0,1,.79-.87,5.87,5.87,0,0,1,2-1.36A4.49,4.49,0,0,1,237.81,0h20.6l1.08.14,1.36.36,1.3.44,1.08.36a14.35,14.35,0,0,1,7.16,5.94,16.83,16.83,0,0,1,2.42,8.89Zm-26.21-1.88h10.66c.43,0,.68-.16.76-.36a2.37,2.37,0,0,0,.1-.79c0-.91-.5-1.37-1.51-1.37h-10Z"/><path class="cls-6" d="M326.37,0a7.29,7.29,0,0,1,4.22,1.26,8.32,8.32,0,0,1,2.84,3.42l.29.86.21.58V17.86l4.54-6.63a4.87,4.87,0,0,1,2.38-1.76,15.27,15.27,0,0,1,1.8-.47,11.18,11.18,0,0,1,1.51-.07,11.84,11.84,0,0,1,3,.5,5.47,5.47,0,0,1,2.59,1.8l4.54,6.63V6.34a3.46,3.46,0,0,1,.43-1.52l.72-1.44A6.29,6.29,0,0,1,358.31.79,8.56,8.56,0,0,1,361.87,0a6.85,6.85,0,0,1,1.47.14,8.21,8.21,0,0,1,1.41.51A10.14,10.14,0,0,1,366,1.3,7.78,7.78,0,0,1,367,2a5.26,5.26,0,0,1,1.69,2.12A6.71,6.71,0,0,1,369.28,7V43.34a6,6,0,0,1-.64,2.78,7.21,7.21,0,0,1-1.7,2.16,6.51,6.51,0,0,1-2.19,1.29,12,12,0,0,1-1.58.47,8.49,8.49,0,0,1-1.3.07,8.82,8.82,0,0,1-3.31-.65,6.59,6.59,0,0,1-2.67-2.08L344.16,29.81,332.35,47.38a5.66,5.66,0,0,1-2.7,2.08,9,9,0,0,1-3.28.65,6.93,6.93,0,0,1-2.37-.39,12.52,12.52,0,0,1-1.59-.69,10.65,10.65,0,0,1-1.22-.86A6.62,6.62,0,0,1,319.57,46a6.53,6.53,0,0,1-.61-2.91V7a7.19,7.19,0,0,1,.57-2.8,7.85,7.85,0,0,1,.83-1.26,10.17,10.17,0,0,1,.83-.9A5.56,5.56,0,0,1,323.57.58a6.63,6.63,0,0,1,1.26-.47A7.73,7.73,0,0,1,326.37,0Z"/><path class="cls-7" d="M396.43,0a22.7,22.7,0,0,1,6.19.79A20.34,20.34,0,0,1,408,3.17a18.77,18.77,0,0,1,7.56,9.14,8.63,8.63,0,0,1,.54,1.3c.12.38.31,1,.57,1.87a9.36,9.36,0,0,1,.4,2.81V31.82a12.66,12.66,0,0,1-.5,3.1l-1,2.88A19.09,19.09,0,0,1,408,47a22.64,22.64,0,0,1-23,0,18.72,18.72,0,0,1-7.56-9.14,15.58,15.58,0,0,1-1.08-2.92,11.08,11.08,0,0,1-.43-2.84v-14l.14-1.29.36-1.59.5-1.58.51-1.3a19.36,19.36,0,0,1,7.56-9.21A21.27,21.27,0,0,1,396.43,0Zm0,14.83a6.28,6.28,0,0,0-4,1.41,4.46,4.46,0,0,0-1.8,3.7V30.17a4.44,4.44,0,0,0,1.8,3.74,6.41,6.41,0,0,0,4,1.37,6,6,0,0,0,4-1.48A4.76,4.76,0,0,0,402.19,30V20.16a4.81,4.81,0,0,0-1.73-3.89A6.11,6.11,0,0,0,396.43,14.83Z"/><path class="cls-2" d="M464.61,19.3a13.49,13.49,0,0,1-.72,3l-.29.72-.36.72-.28.65-.29.65.29.64.28.65,1,2.52a6.68,6.68,0,0,1,.51,2.59V44.14a4.49,4.49,0,0,1-.72,2.37,6.93,6.93,0,0,1-1.73,1.91,8.51,8.51,0,0,1-2.45,1.22,8,8,0,0,1-2.45.47,7.65,7.65,0,0,1-4.1-1.19,6.79,6.79,0,0,1-2.81-3.27l-.36-.87-.14-.64V33.34a1.64,1.64,0,0,1-.18-.22.77.77,0,0,0-.26-.22l-.5-.21H438.33V44.14l-.21.64-.29.87A6.88,6.88,0,0,1,435,49a7.91,7.91,0,0,1-4.1,1.11,6.82,6.82,0,0,1-2.27-.39,13.53,13.53,0,0,1-1.59-.65,10.1,10.1,0,0,1-1-.61,6.49,6.49,0,0,1-1.87-2,4.54,4.54,0,0,1-.65-2.37V6a6.29,6.29,0,0,1,.58-2.09l.65-1.08a8.73,8.73,0,0,1,.79-.87,5.87,5.87,0,0,1,2-1.36A4.49,4.49,0,0,1,429.76,0h20.6l1.08.14L452.8.5l1.3.44,1.08.36a14.39,14.39,0,0,1,7.16,5.94,16.83,16.83,0,0,1,2.42,8.89ZM438.4,17.42h10.66c.43,0,.68-.16.76-.36a2.37,2.37,0,0,0,.1-.79c0-.91-.5-1.37-1.51-1.37h-10Z"/><path class="cls-8" d="M474.55,48.92a9,9,0,0,1-2.81-3.34,6.73,6.73,0,0,1-.43-2.24V6.77a10,10,0,0,1,.61-2.45,5.61,5.61,0,0,1,1.26-2A6.42,6.42,0,0,1,475.12.68,4.94,4.94,0,0,1,477.5,0h16.56a9.28,9.28,0,0,1,1.58.14c.53.1,1,.22,1.52.36l3,1a18,18,0,0,1,4.93,2.74,24.07,24.07,0,0,1,4,3.92,14.92,14.92,0,0,1,2.63,5,13.09,13.09,0,0,1,.79,2.77,16.62,16.62,0,0,1,.22,2.77V31.39a16.15,16.15,0,0,1-1.26,6.41A18.21,18.21,0,0,1,508.17,43a21.75,21.75,0,0,1-4.82,4,21.42,21.42,0,0,1-5.69,2.52,1,1,0,0,1-.43.15l-.43.07-1.66.29-1.08.14H477.5l-.43-.07-.43-.14A6.86,6.86,0,0,1,474.55,48.92Zm11.81-13.57h2.88l1.72-.07h1.16l1.72-.29,1.8-.79a6.52,6.52,0,0,0,1.48-1.33,2.55,2.55,0,0,0,.54-1.62V18.86l-.07-.21-.15-.36a5.24,5.24,0,0,0-1.51-2,3.68,3.68,0,0,0-1.94-1,6.83,6.83,0,0,0-2.31-.36l-2.44-.07h-2.88Z"/><path class="cls-8" d="M546.4.07a7.81,7.81,0,0,1,4.07,1.15,6.63,6.63,0,0,1,2.77,3.32l.29.79.14.5V26.57a4.48,4.48,0,0,1-.71,2.37,7.09,7.09,0,0,1-1.73,1.91,8.76,8.76,0,0,1-2.38,1.23,7.69,7.69,0,0,1-2.45.46,6.86,6.86,0,0,1-2.27-.39,13.2,13.2,0,0,1-1.58-.65,9,9,0,0,1-1-.61,5.77,5.77,0,0,1-1.8-1.95,4,4,0,0,1-.72-2.37V6.05a4.54,4.54,0,0,1,.68-2.45,7.07,7.07,0,0,1,1.69-1.84A8.51,8.51,0,0,1,543.88.54,8.39,8.39,0,0,1,546.4.07Zm-7.34,42.55a6.7,6.7,0,0,1,2.12-5.18,7.44,7.44,0,0,1,5.22-1.94,7,7,0,0,1,5.3,2.08,7.48,7.48,0,0,1,2,5.33,6.93,6.93,0,0,1-.61,2.88,7.29,7.29,0,0,1-1.65,2.34,7.71,7.71,0,0,1-2.24,1.48,7.13,7.13,0,0,1-2.77.5A6.87,6.87,0,0,1,541,47.92,7.65,7.65,0,0,1,539.06,42.62Z"/></g></g></svg>